<mxfile host="Electron" modified="2024-04-08T08:59:23.824Z" agent="Mozilla/5.0 (Macintosh; Intel Mac OS X 10_15_7) AppleWebKit/537.36 (KHTML, like Gecko) draw.io/24.1.0 Chrome/120.0.6099.109 Electron/28.1.0 Safari/537.36" etag="Y0k9M7egraMhisVQS9M5" version="24.1.0" type="device">
  <diagram name="Page-1" id="LIHUs0U5QiBAvvJDqx8w">
    <mxGraphModel dx="3475" dy="1428" grid="1" gridSize="10" guides="1" tooltips="1" connect="1" arrows="1" fold="1" page="1" pageScale="1" pageWidth="1169" pageHeight="827" background="#ffffff" math="0" shadow="0">
      <root>
        <mxCell id="0" />
        <mxCell id="1" parent="0" />
        <mxCell id="NsH_3jBiZtPmKXt7x4EO-2" value="AWS Cloud" style="points=[[0,0],[0.25,0],[0.5,0],[0.75,0],[1,0],[1,0.25],[1,0.5],[1,0.75],[1,1],[0.75,1],[0.5,1],[0.25,1],[0,1],[0,0.75],[0,0.5],[0,0.25]];outlineConnect=0;gradientColor=none;html=1;whiteSpace=wrap;fontSize=12;fontStyle=0;container=1;pointerEvents=0;collapsible=0;recursiveResize=0;shape=mxgraph.aws4.group;grIcon=mxgraph.aws4.group_aws_cloud_alt;strokeColor=#232F3E;fillColor=none;verticalAlign=middle;align=left;spacingLeft=30;fontColor=#232F3E;dashed=0;labelPosition=right;verticalLabelPosition=middle;" parent="1" vertex="1">
          <mxGeometry x="120" y="40" width="1079" height="880" as="geometry" />
        </mxCell>
        <mxCell id="NsH_3jBiZtPmKXt7x4EO-3" value="VPC" style="points=[[0,0],[0.25,0],[0.5,0],[0.75,0],[1,0],[1,0.25],[1,0.5],[1,0.75],[1,1],[0.75,1],[0.5,1],[0.25,1],[0,1],[0,0.75],[0,0.5],[0,0.25]];outlineConnect=0;gradientColor=none;html=1;whiteSpace=wrap;fontSize=12;fontStyle=0;container=1;pointerEvents=0;collapsible=0;recursiveResize=0;shape=mxgraph.aws4.group;grIcon=mxgraph.aws4.group_vpc2;strokeColor=#8C4FFF;fillColor=none;verticalAlign=top;align=left;spacingLeft=30;fontColor=#AAB7B8;dashed=0;" parent="NsH_3jBiZtPmKXt7x4EO-2" vertex="1">
          <mxGeometry x="210" y="40" width="869" height="830" as="geometry" />
        </mxCell>
        <mxCell id="NsH_3jBiZtPmKXt7x4EO-8" value="&lt;div&gt;Availability Zone A&lt;/div&gt;" style="fillColor=none;strokeColor=#147EBA;dashed=1;verticalAlign=top;fontStyle=0;fontColor=#147EBA;whiteSpace=wrap;html=1;points=[[0,0,0,0,0],[0,0.25,0,0,0],[0,0.5,0,0,0],[0,0.75,0,0,0],[0,1,0,0,0],[0.25,0,0,0,0],[0.25,1,0,0,0],[0.5,0,0,0,0],[0.5,1,0,0,0],[0.75,0,0,0,0],[0.75,1,0,0,0],[1,0,0,0,0],[1,0.25,0,0,0],[1,0.5,0,0,0],[1,0.75,0,0,0],[1,1,0,0,0]];" parent="NsH_3jBiZtPmKXt7x4EO-3" vertex="1">
          <mxGeometry x="50" y="160" width="160" height="660" as="geometry" />
        </mxCell>
        <mxCell id="NsH_3jBiZtPmKXt7x4EO-47" value="App subnet" style="points=[[0,0],[0.25,0],[0.5,0],[0.75,0],[1,0],[1,0.25],[1,0.5],[1,0.75],[1,1],[0.75,1],[0.5,1],[0.25,1],[0,1],[0,0.75],[0,0.5],[0,0.25]];outlineConnect=0;gradientColor=none;html=1;whiteSpace=wrap;fontSize=12;fontStyle=0;container=1;pointerEvents=0;collapsible=0;recursiveResize=0;shape=mxgraph.aws4.group;grIcon=mxgraph.aws4.group_security_group;grStroke=0;strokeColor=#00A4A6;fillColor=#E6F6F7;verticalAlign=top;align=left;spacingLeft=30;fontColor=#147EBA;dashed=0;" parent="NsH_3jBiZtPmKXt7x4EO-3" vertex="1">
          <mxGeometry x="60" y="470" width="130" height="200" as="geometry" />
        </mxCell>
        <mxCell id="NsH_3jBiZtPmKXt7x4EO-4" value="Internet Gateway" style="sketch=0;outlineConnect=0;fontColor=#232F3E;gradientColor=none;fillColor=#8C4FFF;strokeColor=none;dashed=0;verticalLabelPosition=top;verticalAlign=bottom;align=center;html=1;fontSize=12;fontStyle=0;aspect=fixed;pointerEvents=1;shape=mxgraph.aws4.internet_gateway;labelPosition=center;" parent="NsH_3jBiZtPmKXt7x4EO-3" vertex="1">
          <mxGeometry x="60" y="56" width="78" height="78" as="geometry" />
        </mxCell>
        <mxCell id="NsH_3jBiZtPmKXt7x4EO-9" value="Availability Zone B" style="fillColor=none;strokeColor=#147EBA;dashed=1;verticalAlign=top;fontStyle=0;fontColor=#147EBA;whiteSpace=wrap;html=1;" parent="NsH_3jBiZtPmKXt7x4EO-3" vertex="1">
          <mxGeometry x="230" y="160" width="160" height="660" as="geometry" />
        </mxCell>
        <mxCell id="NsH_3jBiZtPmKXt7x4EO-38" style="edgeStyle=orthogonalEdgeStyle;rounded=0;orthogonalLoop=1;jettySize=auto;html=1;fontColor=#000000;strokeColor=#000000;" parent="NsH_3jBiZtPmKXt7x4EO-3" source="NsH_3jBiZtPmKXt7x4EO-14" target="NsH_3jBiZtPmKXt7x4EO-4" edge="1">
          <mxGeometry relative="1" as="geometry" />
        </mxCell>
        <mxCell id="NsH_3jBiZtPmKXt7x4EO-14" value="Router" style="sketch=0;outlineConnect=0;fontColor=#232F3E;gradientColor=none;fillColor=#8C4FFF;strokeColor=none;dashed=0;verticalLabelPosition=top;verticalAlign=bottom;align=center;html=1;fontSize=12;fontStyle=0;aspect=fixed;pointerEvents=1;shape=mxgraph.aws4.customer_gateway;labelPosition=center;" parent="NsH_3jBiZtPmKXt7x4EO-3" vertex="1">
          <mxGeometry x="175" y="56" width="78" height="78" as="geometry" />
        </mxCell>
        <mxCell id="NsH_3jBiZtPmKXt7x4EO-21" value="Public subnet" style="points=[[0,0],[0.25,0],[0.5,0],[0.75,0],[1,0],[1,0.25],[1,0.5],[1,0.75],[1,1],[0.75,1],[0.5,1],[0.25,1],[0,1],[0,0.75],[0,0.5],[0,0.25]];outlineConnect=0;gradientColor=none;html=1;whiteSpace=wrap;fontSize=12;fontStyle=0;container=1;pointerEvents=0;collapsible=0;recursiveResize=0;shape=mxgraph.aws4.group;grIcon=mxgraph.aws4.group_security_group;grStroke=0;strokeColor=#7AA116;fillColor=#F2F6E8;verticalAlign=top;align=left;spacingLeft=30;fontColor=#248814;dashed=0;" parent="NsH_3jBiZtPmKXt7x4EO-3" vertex="1">
          <mxGeometry x="60" y="180" width="130" height="130" as="geometry" />
        </mxCell>
        <mxCell id="NsH_3jBiZtPmKXt7x4EO-20" style="edgeStyle=orthogonalEdgeStyle;rounded=0;orthogonalLoop=1;jettySize=auto;html=1;strokeColor=#000000;" parent="NsH_3jBiZtPmKXt7x4EO-3" source="NsH_3jBiZtPmKXt7x4EO-15" target="NsH_3jBiZtPmKXt7x4EO-14" edge="1">
          <mxGeometry relative="1" as="geometry" />
        </mxCell>
        <mxCell id="NsH_3jBiZtPmKXt7x4EO-15" value="" style="sketch=0;outlineConnect=0;fontColor=#232F3E;gradientColor=none;fillColor=#8C4FFF;strokeColor=none;dashed=0;verticalLabelPosition=bottom;verticalAlign=top;align=center;html=1;fontSize=12;fontStyle=0;aspect=fixed;pointerEvents=1;shape=mxgraph.aws4.nat_gateway;" parent="NsH_3jBiZtPmKXt7x4EO-3" vertex="1">
          <mxGeometry x="86" y="206" width="78" height="78" as="geometry" />
        </mxCell>
        <mxCell id="NsH_3jBiZtPmKXt7x4EO-22" value="Public subnet" style="points=[[0,0],[0.25,0],[0.5,0],[0.75,0],[1,0],[1,0.25],[1,0.5],[1,0.75],[1,1],[0.75,1],[0.5,1],[0.25,1],[0,1],[0,0.75],[0,0.5],[0,0.25]];outlineConnect=0;gradientColor=none;html=1;whiteSpace=wrap;fontSize=12;fontStyle=0;container=1;pointerEvents=0;collapsible=0;recursiveResize=0;shape=mxgraph.aws4.group;grIcon=mxgraph.aws4.group_security_group;grStroke=0;strokeColor=#7AA116;fillColor=#F2F6E8;verticalAlign=top;align=left;spacingLeft=30;fontColor=#248814;dashed=0;" parent="NsH_3jBiZtPmKXt7x4EO-3" vertex="1">
          <mxGeometry x="240" y="180" width="130" height="130" as="geometry" />
        </mxCell>
        <mxCell id="NsH_3jBiZtPmKXt7x4EO-41" style="edgeStyle=orthogonalEdgeStyle;rounded=0;orthogonalLoop=1;jettySize=auto;html=1;strokeColor=#000000;" parent="NsH_3jBiZtPmKXt7x4EO-3" source="NsH_3jBiZtPmKXt7x4EO-17" target="NsH_3jBiZtPmKXt7x4EO-14" edge="1">
          <mxGeometry relative="1" as="geometry">
            <Array as="points">
              <mxPoint x="214" y="245" />
            </Array>
          </mxGeometry>
        </mxCell>
        <mxCell id="NsH_3jBiZtPmKXt7x4EO-17" value="NAT Gateway" style="sketch=0;outlineConnect=0;fontColor=#232F3E;gradientColor=none;fillColor=#8C4FFF;strokeColor=none;dashed=0;verticalLabelPosition=middle;verticalAlign=middle;align=left;html=1;fontSize=12;fontStyle=0;aspect=fixed;pointerEvents=1;shape=mxgraph.aws4.nat_gateway;labelPosition=right;" parent="NsH_3jBiZtPmKXt7x4EO-3" vertex="1">
          <mxGeometry x="266" y="206" width="78" height="78" as="geometry" />
        </mxCell>
        <mxCell id="NsH_3jBiZtPmKXt7x4EO-45" style="edgeStyle=orthogonalEdgeStyle;rounded=0;orthogonalLoop=1;jettySize=auto;html=1;strokeColor=#000000;" parent="NsH_3jBiZtPmKXt7x4EO-3" source="NsH_3jBiZtPmKXt7x4EO-26" target="NsH_3jBiZtPmKXt7x4EO-17" edge="1">
          <mxGeometry relative="1" as="geometry" />
        </mxCell>
        <mxCell id="NsH_3jBiZtPmKXt7x4EO-26" value="App subnet" style="points=[[0,0],[0.25,0],[0.5,0],[0.75,0],[1,0],[1,0.25],[1,0.5],[1,0.75],[1,1],[0.75,1],[0.5,1],[0.25,1],[0,1],[0,0.75],[0,0.5],[0,0.25]];outlineConnect=0;gradientColor=none;html=1;whiteSpace=wrap;fontSize=12;fontStyle=0;container=1;pointerEvents=0;collapsible=0;recursiveResize=0;shape=mxgraph.aws4.group;grIcon=mxgraph.aws4.group_security_group;grStroke=0;strokeColor=#00A4A6;fillColor=#E6F6F7;verticalAlign=top;align=left;spacingLeft=30;fontColor=#147EBA;dashed=0;" parent="NsH_3jBiZtPmKXt7x4EO-3" vertex="1">
          <mxGeometry x="240" y="470" width="130" height="200" as="geometry" />
        </mxCell>
        <mxCell id="NsH_3jBiZtPmKXt7x4EO-40" value="Auto Scaling group" style="points=[[0,0],[0.25,0],[0.5,0],[0.75,0],[1,0],[1,0.25],[1,0.5],[1,0.75],[1,1],[0.75,1],[0.5,1],[0.25,1],[0,1],[0,0.75],[0,0.5],[0,0.25]];outlineConnect=0;gradientColor=none;html=1;whiteSpace=wrap;fontSize=12;fontStyle=0;container=1;pointerEvents=0;collapsible=0;recursiveResize=0;shape=mxgraph.aws4.groupCenter;grIcon=mxgraph.aws4.group_auto_scaling_group;grStroke=1;strokeColor=#D86613;fillColor=none;verticalAlign=top;align=center;fontColor=#D86613;dashed=1;spacingTop=25;labelBackgroundColor=#E6E6E6;" parent="NsH_3jBiZtPmKXt7x4EO-26" vertex="1">
          <mxGeometry x="-170" y="30" width="290" height="150" as="geometry" />
        </mxCell>
        <mxCell id="NsH_3jBiZtPmKXt7x4EO-28" value="DB subnet" style="points=[[0,0],[0.25,0],[0.5,0],[0.75,0],[1,0],[1,0.25],[1,0.5],[1,0.75],[1,1],[0.75,1],[0.5,1],[0.25,1],[0,1],[0,0.75],[0,0.5],[0,0.25]];outlineConnect=0;gradientColor=none;html=1;whiteSpace=wrap;fontSize=12;fontStyle=0;container=1;pointerEvents=0;collapsible=0;recursiveResize=0;shape=mxgraph.aws4.group;grIcon=mxgraph.aws4.group_security_group;grStroke=0;strokeColor=#00A4A6;fillColor=#E6F6F7;verticalAlign=top;align=left;spacingLeft=30;fontColor=#147EBA;dashed=0;" parent="NsH_3jBiZtPmKXt7x4EO-3" vertex="1">
          <mxGeometry x="60" y="680" width="130" height="130" as="geometry" />
        </mxCell>
        <mxCell id="NsH_3jBiZtPmKXt7x4EO-29" value="DB subnet" style="points=[[0,0],[0.25,0],[0.5,0],[0.75,0],[1,0],[1,0.25],[1,0.5],[1,0.75],[1,1],[0.75,1],[0.5,1],[0.25,1],[0,1],[0,0.75],[0,0.5],[0,0.25]];outlineConnect=0;gradientColor=none;html=1;whiteSpace=wrap;fontSize=12;fontStyle=0;container=1;pointerEvents=0;collapsible=0;recursiveResize=0;shape=mxgraph.aws4.group;grIcon=mxgraph.aws4.group_security_group;grStroke=0;strokeColor=#00A4A6;fillColor=#E6F6F7;verticalAlign=top;align=left;spacingLeft=30;fontColor=#147EBA;dashed=0;" parent="NsH_3jBiZtPmKXt7x4EO-3" vertex="1">
          <mxGeometry x="240" y="680" width="130" height="130" as="geometry" />
        </mxCell>
        <mxCell id="NsH_3jBiZtPmKXt7x4EO-57" style="edgeStyle=orthogonalEdgeStyle;rounded=0;orthogonalLoop=1;jettySize=auto;html=1;strokeColor=#000000;entryX=0;entryY=0.5;entryDx=0;entryDy=0;entryPerimeter=0;startArrow=classic;startFill=1;" parent="NsH_3jBiZtPmKXt7x4EO-3" source="NsH_3jBiZtPmKXt7x4EO-42" target="NsH_3jBiZtPmKXt7x4EO-55" edge="1">
          <mxGeometry relative="1" as="geometry">
            <Array as="points">
              <mxPoint x="119" y="592" />
              <mxPoint x="60" y="592" />
              <mxPoint x="60" y="745" />
            </Array>
          </mxGeometry>
        </mxCell>
        <mxCell id="NsH_3jBiZtPmKXt7x4EO-42" value="" style="sketch=0;points=[[0,0,0],[0.25,0,0],[0.5,0,0],[0.75,0,0],[1,0,0],[0,1,0],[0.25,1,0],[0.5,1,0],[0.75,1,0],[1,1,0],[0,0.25,0],[0,0.5,0],[0,0.75,0],[1,0.25,0],[1,0.5,0],[1,0.75,0]];outlineConnect=0;fontColor=#232F3E;fillColor=#ED7100;strokeColor=#ffffff;dashed=0;verticalLabelPosition=bottom;verticalAlign=top;align=center;html=1;fontSize=12;fontStyle=0;aspect=fixed;shape=mxgraph.aws4.resourceIcon;resIcon=mxgraph.aws4.fargate;" parent="NsH_3jBiZtPmKXt7x4EO-3" vertex="1">
          <mxGeometry x="80" y="550" width="78" height="78" as="geometry" />
        </mxCell>
        <mxCell id="NsH_3jBiZtPmKXt7x4EO-43" value="Fargate" style="sketch=0;points=[[0,0,0],[0.25,0,0],[0.5,0,0],[0.75,0,0],[1,0,0],[0,1,0],[0.25,1,0],[0.5,1,0],[0.75,1,0],[1,1,0],[0,0.25,0],[0,0.5,0],[0,0.75,0],[1,0.25,0],[1,0.5,0],[1,0.75,0]];outlineConnect=0;fontColor=#232F3E;fillColor=#ED7100;strokeColor=#ffffff;dashed=0;verticalLabelPosition=bottom;verticalAlign=top;align=center;html=1;fontSize=12;fontStyle=0;aspect=fixed;shape=mxgraph.aws4.resourceIcon;resIcon=mxgraph.aws4.fargate;" parent="NsH_3jBiZtPmKXt7x4EO-3" vertex="1">
          <mxGeometry x="250" y="550" width="78" height="78" as="geometry" />
        </mxCell>
        <mxCell id="NsH_3jBiZtPmKXt7x4EO-48" style="edgeStyle=orthogonalEdgeStyle;rounded=0;orthogonalLoop=1;jettySize=auto;html=1;fontColor=#000000;strokeColor=#000000;" parent="NsH_3jBiZtPmKXt7x4EO-3" source="NsH_3jBiZtPmKXt7x4EO-47" target="NsH_3jBiZtPmKXt7x4EO-15" edge="1">
          <mxGeometry relative="1" as="geometry" />
        </mxCell>
        <mxCell id="NsH_3jBiZtPmKXt7x4EO-55" value="RDS" style="sketch=0;points=[[0,0,0,0,0],[0,0.25,0,0,0],[0,0.5,0,0,0],[0,0.75,0,0,0],[0,1,0,0,0],[0.25,0,0,0,0],[0.25,1,0,0,0],[0.5,0,0,0,0],[0.5,1,0,0,0],[0.75,0,0,0,0],[0.75,1,0,0,0],[1,0,0,0,0],[1,0.25,0,0,0],[1,0.5,0,0,0],[1,0.75,0,0,0],[1,1,0,0,0]];outlineConnect=0;fontColor=#232F3E;fillColor=#C925D1;strokeColor=#ffffff;dashed=0;verticalLabelPosition=bottom;verticalAlign=top;align=center;html=1;fontSize=12;fontStyle=0;aspect=fixed;shape=mxgraph.aws4.resourceIcon;resIcon=mxgraph.aws4.rds;" parent="NsH_3jBiZtPmKXt7x4EO-3" vertex="1">
          <mxGeometry x="80" y="706" width="78" height="78" as="geometry" />
        </mxCell>
        <mxCell id="NsH_3jBiZtPmKXt7x4EO-56" value="" style="sketch=0;points=[[0,0,0],[0.25,0,0],[0.5,0,0],[0.75,0,0],[1,0,0],[0,1,0],[0.25,1,0],[0.5,1,0],[0.75,1,0],[1,1,0],[0,0.25,0],[0,0.5,0],[0,0.75,0],[1,0.25,0],[1,0.5,0],[1,0.75,0]];outlineConnect=0;fontColor=#232F3E;fillColor=#C925D1;strokeColor=#ffffff;dashed=0;verticalLabelPosition=bottom;verticalAlign=top;align=center;html=1;fontSize=12;fontStyle=0;aspect=fixed;shape=mxgraph.aws4.resourceIcon;resIcon=mxgraph.aws4.rds;" parent="NsH_3jBiZtPmKXt7x4EO-3" vertex="1">
          <mxGeometry x="266" y="706" width="78" height="78" as="geometry" />
        </mxCell>
        <mxCell id="v0-o1UxOBz2tAhhprnT--19" style="edgeStyle=orthogonalEdgeStyle;rounded=0;orthogonalLoop=1;jettySize=auto;html=1;labelPosition=right;verticalLabelPosition=middle;align=left;verticalAlign=middle;" edge="1" parent="NsH_3jBiZtPmKXt7x4EO-3" source="v0-o1UxOBz2tAhhprnT--10" target="NsH_3jBiZtPmKXt7x4EO-40">
          <mxGeometry relative="1" as="geometry" />
        </mxCell>
        <mxCell id="v0-o1UxOBz2tAhhprnT--10" value="&amp;nbsp; &amp;nbsp; &amp;nbsp; &amp;nbsp; &amp;nbsp; &amp;nbsp; &amp;nbsp; &amp;nbsp; &amp;nbsp; &amp;nbsp; &amp;nbsp; &amp;nbsp; Internet-facing&lt;br&gt;&amp;nbsp; &amp;nbsp; &amp;nbsp; &amp;nbsp; &amp;nbsp; &amp;nbsp; &amp;nbsp; &amp;nbsp; &amp;nbsp; &amp;nbsp; &amp;nbsp; &amp;nbsp; &amp;nbsp;ALB" style="sketch=0;outlineConnect=0;fontColor=#232F3E;gradientColor=none;fillColor=#8C4FFF;strokeColor=none;dashed=0;verticalLabelPosition=bottom;verticalAlign=top;align=center;html=1;fontSize=12;fontStyle=0;aspect=fixed;pointerEvents=1;shape=mxgraph.aws4.application_load_balancer;labelPosition=center;" vertex="1" parent="NsH_3jBiZtPmKXt7x4EO-3">
          <mxGeometry x="177" y="250" width="78" height="78" as="geometry" />
        </mxCell>
        <mxCell id="NsH_3jBiZtPmKXt7x4EO-33" value="ECR" style="sketch=0;points=[[0,0,0],[0.25,0,0],[0.5,0,0],[0.75,0,0],[1,0,0],[0,1,0],[0.25,1,0],[0.5,1,0],[0.75,1,0],[1,1,0],[0,0.25,0],[0,0.5,0],[0,0.75,0],[1,0.25,0],[1,0.5,0],[1,0.75,0]];outlineConnect=0;fontColor=#232F3E;fillColor=#ED7100;strokeColor=#ffffff;dashed=0;verticalLabelPosition=bottom;verticalAlign=top;align=center;html=1;fontSize=12;fontStyle=0;aspect=fixed;shape=mxgraph.aws4.resourceIcon;resIcon=mxgraph.aws4.ecr;" parent="NsH_3jBiZtPmKXt7x4EO-3" vertex="1">
          <mxGeometry x="530" y="50" width="80" height="80" as="geometry" />
        </mxCell>
        <mxCell id="v0-o1UxOBz2tAhhprnT--4" value="&lt;div&gt;&lt;span style=&quot;background-color: initial;&quot;&gt;Cognito Hosted UI&lt;/span&gt;&lt;br&gt;&lt;/div&gt;" style="sketch=0;points=[[0,0,0,0,0],[0,0.25,0,0,0],[0,0.5,0,0,0],[0,0.75,0,0,0],[0,1,0,0,0],[0.25,0,0,0,0],[0.25,1,0,0,0],[0.5,0,0,0,0],[0.5,1,0,0,0],[0.75,0,0,0,0],[0.75,1,0,0,0],[1,0,0,0,0],[1,0.25,0,0,0],[1,0.5,0,0,0],[1,0.75,0,0,0],[1,1,0,0,0]];outlineConnect=0;fontColor=#232F3E;fillColor=#8C4FFF;strokeColor=#ffffff;dashed=0;verticalLabelPosition=top;verticalAlign=bottom;align=center;html=1;fontSize=12;fontStyle=0;aspect=fixed;shape=mxgraph.aws4.resourceIcon;resIcon=mxgraph.aws4.cloudfront;labelPosition=center;" vertex="1" parent="NsH_3jBiZtPmKXt7x4EO-2">
          <mxGeometry x="70" y="480" width="80" height="80" as="geometry" />
        </mxCell>
        <mxCell id="v0-o1UxOBz2tAhhprnT--12" style="edgeStyle=orthogonalEdgeStyle;rounded=0;orthogonalLoop=1;jettySize=auto;html=1;fontColor=#000000;strokeColor=#000000;startArrow=classic;startFill=1;" edge="1" parent="NsH_3jBiZtPmKXt7x4EO-2" source="v0-o1UxOBz2tAhhprnT--11" target="v0-o1UxOBz2tAhhprnT--4">
          <mxGeometry relative="1" as="geometry" />
        </mxCell>
        <mxCell id="v0-o1UxOBz2tAhhprnT--14" value="인증 서비스&lt;div&gt;서브도메인 제공&lt;/div&gt;" style="edgeLabel;html=1;align=left;verticalAlign=middle;resizable=0;points=[];labelBackgroundColor=none;fontColor=#000000;labelPosition=right;verticalLabelPosition=middle;" vertex="1" connectable="0" parent="v0-o1UxOBz2tAhhprnT--12">
          <mxGeometry relative="1" as="geometry">
            <mxPoint as="offset" />
          </mxGeometry>
        </mxCell>
        <mxCell id="v0-o1UxOBz2tAhhprnT--11" value="Route53" style="sketch=0;points=[[0,0,0],[0.25,0,0],[0.5,0,0],[0.75,0,0],[1,0,0],[0,1,0],[0.25,1,0],[0.5,1,0],[0.75,1,0],[1,1,0],[0,0.25,0],[0,0.5,0],[0,0.75,0],[1,0.25,0],[1,0.5,0],[1,0.75,0]];outlineConnect=0;fontColor=#232F3E;fillColor=#8C4FFF;strokeColor=#ffffff;dashed=0;verticalLabelPosition=bottom;verticalAlign=top;align=center;html=1;fontSize=12;fontStyle=0;aspect=fixed;shape=mxgraph.aws4.resourceIcon;resIcon=mxgraph.aws4.route_53;" vertex="1" parent="NsH_3jBiZtPmKXt7x4EO-2">
          <mxGeometry x="70" y="610" width="80" height="80" as="geometry" />
        </mxCell>
        <mxCell id="v0-o1UxOBz2tAhhprnT--1" value="Cognito" style="sketch=0;points=[[0,0,0],[0.25,0,0],[0.5,0,0],[0.75,0,0],[1,0,0],[0,1,0],[0.25,1,0],[0.5,1,0],[0.75,1,0],[1,1,0],[0,0.25,0],[0,0.5,0],[0,0.75,0],[1,0.25,0],[1,0.5,0],[1,0.75,0]];outlineConnect=0;fontColor=#232F3E;fillColor=#DD344C;strokeColor=#ffffff;dashed=0;verticalLabelPosition=bottom;verticalAlign=top;align=center;html=1;fontSize=12;fontStyle=0;aspect=fixed;shape=mxgraph.aws4.resourceIcon;resIcon=mxgraph.aws4.cognito;" vertex="1" parent="NsH_3jBiZtPmKXt7x4EO-2">
          <mxGeometry x="70" y="360" width="80" height="80" as="geometry" />
        </mxCell>
        <mxCell id="v0-o1UxOBz2tAhhprnT--15" style="edgeStyle=orthogonalEdgeStyle;rounded=0;orthogonalLoop=1;jettySize=auto;html=1;entryX=1;entryY=0.5;entryDx=0;entryDy=0;entryPerimeter=0;exitX=1;exitY=0.5;exitDx=0;exitDy=0;exitPerimeter=0;strokeColor=#000000;startArrow=classic;startFill=1;labelPosition=right;verticalLabelPosition=middle;align=left;verticalAlign=middle;" edge="1" parent="NsH_3jBiZtPmKXt7x4EO-2" source="v0-o1UxOBz2tAhhprnT--4" target="v0-o1UxOBz2tAhhprnT--1">
          <mxGeometry relative="1" as="geometry" />
        </mxCell>
        <mxCell id="v0-o1UxOBz2tAhhprnT--16" value="2. 인증" style="edgeLabel;html=1;align=left;verticalAlign=middle;resizable=0;points=[];labelPosition=right;verticalLabelPosition=middle;labelBackgroundColor=none;fontColor=#000000;" vertex="1" connectable="0" parent="v0-o1UxOBz2tAhhprnT--15">
          <mxGeometry x="0.02" relative="1" as="geometry">
            <mxPoint as="offset" />
          </mxGeometry>
        </mxCell>
        <mxCell id="v0-o1UxOBz2tAhhprnT--21" style="edgeStyle=orthogonalEdgeStyle;rounded=0;orthogonalLoop=1;jettySize=auto;html=1;" edge="1" parent="NsH_3jBiZtPmKXt7x4EO-2" source="v0-o1UxOBz2tAhhprnT--2" target="v0-o1UxOBz2tAhhprnT--10">
          <mxGeometry relative="1" as="geometry">
            <Array as="points">
              <mxPoint x="230" y="289" />
              <mxPoint x="230" y="360" />
            </Array>
          </mxGeometry>
        </mxCell>
        <mxCell id="v0-o1UxOBz2tAhhprnT--2" value="Certificate Manager" style="sketch=0;points=[[0,0,0],[0.25,0,0],[0.5,0,0],[0.75,0,0],[1,0,0],[0,1,0],[0.25,1,0],[0.5,1,0],[0.75,1,0],[1,1,0],[0,0.25,0],[0,0.5,0],[0,0.75,0],[1,0.25,0],[1,0.5,0],[1,0.75,0]];outlineConnect=0;fontColor=#232F3E;fillColor=#DD344C;strokeColor=#ffffff;dashed=0;verticalLabelPosition=bottom;verticalAlign=top;align=center;html=1;fontSize=12;fontStyle=0;aspect=fixed;shape=mxgraph.aws4.resourceIcon;resIcon=mxgraph.aws4.certificate_manager_3;" vertex="1" parent="NsH_3jBiZtPmKXt7x4EO-2">
          <mxGeometry x="71" y="250" width="78" height="78" as="geometry" />
        </mxCell>
        <mxCell id="v0-o1UxOBz2tAhhprnT--20" style="edgeStyle=orthogonalEdgeStyle;rounded=0;orthogonalLoop=1;jettySize=auto;html=1;entryX=1;entryY=0.75;entryDx=0;entryDy=0;entryPerimeter=0;" edge="1" parent="NsH_3jBiZtPmKXt7x4EO-2" source="v0-o1UxOBz2tAhhprnT--2" target="v0-o1UxOBz2tAhhprnT--4">
          <mxGeometry relative="1" as="geometry">
            <Array as="points">
              <mxPoint x="230" y="289" />
              <mxPoint x="230" y="540" />
            </Array>
          </mxGeometry>
        </mxCell>
        <mxCell id="v0-o1UxOBz2tAhhprnT--22" value="SSL 제공" style="edgeLabel;html=1;align=center;verticalAlign=middle;resizable=0;points=[];" vertex="1" connectable="0" parent="v0-o1UxOBz2tAhhprnT--20">
          <mxGeometry x="-0.7996" relative="1" as="geometry">
            <mxPoint as="offset" />
          </mxGeometry>
        </mxCell>
        <mxCell id="NsH_3jBiZtPmKXt7x4EO-11" style="edgeStyle=orthogonalEdgeStyle;rounded=0;orthogonalLoop=1;jettySize=auto;html=1;strokeColor=#000000;startArrow=classic;startFill=1;" parent="1" source="NsH_3jBiZtPmKXt7x4EO-10" target="NsH_3jBiZtPmKXt7x4EO-4" edge="1">
          <mxGeometry relative="1" as="geometry" />
        </mxCell>
        <mxCell id="NsH_3jBiZtPmKXt7x4EO-10" value="Internet" style="sketch=0;outlineConnect=0;fontColor=#232F3E;gradientColor=none;fillColor=#232F3D;strokeColor=none;dashed=0;verticalLabelPosition=bottom;verticalAlign=top;align=center;html=1;fontSize=12;fontStyle=0;aspect=fixed;pointerEvents=1;shape=mxgraph.aws4.internet;" parent="1" vertex="1">
          <mxGeometry y="151" width="78" height="48" as="geometry" />
        </mxCell>
        <mxCell id="v0-o1UxOBz2tAhhprnT--5" style="edgeStyle=orthogonalEdgeStyle;rounded=0;orthogonalLoop=1;jettySize=auto;html=1;fontColor=#000000;strokeColor=#000000;" edge="1" parent="1" source="v0-o1UxOBz2tAhhprnT--3" target="v0-o1UxOBz2tAhhprnT--4">
          <mxGeometry relative="1" as="geometry" />
        </mxCell>
        <mxCell id="v0-o1UxOBz2tAhhprnT--9" value="1. 인증 요청" style="edgeLabel;html=1;align=center;verticalAlign=top;resizable=0;points=[];labelBackgroundColor=none;labelPosition=center;verticalLabelPosition=bottom;" vertex="1" connectable="0" parent="v0-o1UxOBz2tAhhprnT--5">
          <mxGeometry x="-0.0011" relative="1" as="geometry">
            <mxPoint as="offset" />
          </mxGeometry>
        </mxCell>
        <mxCell id="v0-o1UxOBz2tAhhprnT--3" value="Client" style="sketch=0;outlineConnect=0;fontColor=#232F3E;gradientColor=none;fillColor=#232F3D;strokeColor=none;dashed=0;verticalLabelPosition=bottom;verticalAlign=top;align=center;html=1;fontSize=12;fontStyle=0;pointerEvents=1;shape=mxgraph.aws4.client;" vertex="1" parent="1">
          <mxGeometry x="28" y="520" width="80" height="80" as="geometry" />
        </mxCell>
        <mxCell id="v0-o1UxOBz2tAhhprnT--17" style="edgeStyle=orthogonalEdgeStyle;rounded=0;orthogonalLoop=1;jettySize=auto;html=1;exitX=0;exitY=0.25;exitDx=0;exitDy=0;exitPerimeter=0;" edge="1" parent="1" source="v0-o1UxOBz2tAhhprnT--4">
          <mxGeometry relative="1" as="geometry">
            <mxPoint x="110" y="540" as="targetPoint" />
          </mxGeometry>
        </mxCell>
        <mxCell id="v0-o1UxOBz2tAhhprnT--18" value="3. 인증" style="edgeLabel;html=1;align=center;verticalAlign=bottom;resizable=0;points=[];labelBackgroundColor=none;labelPosition=center;verticalLabelPosition=top;" vertex="1" connectable="0" parent="v0-o1UxOBz2tAhhprnT--17">
          <mxGeometry x="-0.1661" y="-1" relative="1" as="geometry">
            <mxPoint as="offset" />
          </mxGeometry>
        </mxCell>
      </root>
    </mxGraphModel>
  </diagram>
</mxfile>
